<?xml version="1.0" encoding="UTF-8"?>
<svg width="800px" height="400px" viewBox="0 0 800 400" version="1.1" xmlns="http://www.w3.org/2000/svg" xmlns:xlink="http://www.w3.org/1999/xlink">
    <!-- Generator: Sketch 57.1 (83088) - https://sketch.com -->
    <title>coach-dark copy 2</title>
    <desc>Created with Sketch.</desc>
    <g id="coach-dark-copy-2" stroke="none" stroke-width="1" fill="none" fill-rule="evenodd">
        <g id="icon-vehicle-0-light" transform="translate(141.440559, 61.000000)" fill="#FFFFFF">
            <g id="Group-2">
                <path d="M284.909695,193.195532 C308.225524,193.195532 327.127457,212.174974 327.127457,235.586914 C327.127457,258.999888 308.225524,277.979331 284.909695,277.979331 C261.5949,277.979331 242.691933,258.999888 242.691933,235.586914 C242.691933,212.174974 261.5949,193.195532 284.909695,193.195532 L284.909695,193.195532 Z M284.909695,264.075197 C300.577941,264.075197 313.280164,251.320268 313.280164,235.586914 C313.280164,219.854595 300.577941,207.100699 284.909695,207.100699 C269.24145,207.100699 256.539227,219.854595 256.539227,235.586914 C256.539227,251.320268 269.24145,264.075197 284.909695,264.075197 Z M277.484305,212.888059 L276.090171,210.853182 C278.846401,209.862097 281.814491,209.318498 284.909695,209.318498 C287.573948,209.318498 290.143123,209.720513 292.565546,210.463569 L291.218952,212.542885 C296.725212,214.098238 301.401606,217.634729 304.43997,222.340059 C304.551584,222.243948 304.666297,222.153004 304.756208,222.034156 L306.130706,220.233874 C309.200074,224.502052 311.024126,229.731346 311.065465,235.387457 L308.455985,234.684706 C308.359874,234.65887 308.262729,234.642335 308.165584,234.630967 C308.166617,234.764283 308.173851,234.895532 308.173851,235.029881 C308.173851,240.698394 306.163777,245.893584 302.819509,249.940602 C303.060305,250.213435 303.35174,250.435628 303.695881,250.55861 L305.857874,251.325435 C302.874283,255.322848 298.782825,258.434587 294.04029,260.209033 L293.924543,257.964364 C293.901807,257.523078 293.742654,257.102461 293.482223,256.747985 C290.828305,257.806245 287.936691,258.393249 284.907628,258.393249 C282.404595,258.393249 279.996639,257.992268 277.737502,257.25748 C277.543212,257.578885 277.428498,257.944729 277.418164,258.325041 L277.35719,260.74023 C272.303584,259.212781 267.893822,256.193019 264.637398,252.188372 L266.870699,251.329569 C267.191071,251.205554 267.474238,251.008164 267.704699,250.7591 C264.065896,246.75032 261.805725,241.461086 261.655874,235.645822 C261.581465,235.658223 261.502922,235.655123 261.429546,235.676825 L258.771494,236.468454 C258.762193,236.175985 258.748758,235.882483 258.748758,235.586914 C258.748758,230.302848 260.308245,225.385658 262.982833,221.265264 L264.479279,223.12032 C264.556788,223.218498 264.643599,223.308409 264.735576,223.390052 C267.544513,218.493532 272.066922,214.718312 277.484305,212.888059 Z M231.068639,249.696706 C230.7369,249.69774 230.449599,249.917866 230.366922,250.22997 L224.274691,250.563777 C224.373903,250.11939 224.027695,249.698773 223.563673,249.701874 L0,250.346751 L34.0927212,96.9289888 L98.3241561,96.9289888 C99.7999331,96.9289888 101.008045,95.7436134 101.008045,94.2947063 L101.008045,20.1927212 C101.008045,18.745881 99.8009665,17.5605056 98.3241561,17.5594721 L51.7307361,17.5594721 L54.6833234,4.27024535 C150.103465,3.96640892 232.900959,3.74628253 233.139688,3.88166543 L234.426342,4.6123197 C235.180766,5.04223792 236.038535,5.2675316 236.910773,5.2675316 L240.410059,5.2675316 C241.893071,5.2675316 243.094981,4.08835688 243.094981,2.63428253 C243.094981,1.17917472 244.295859,-2.27373675e-13 245.77887,-2.27373675e-13 L302.684126,-2.27373675e-13 C304.167138,-2.27373675e-13 305.369048,1.17917472 305.369048,2.63428253 L305.369048,3.68737546 C305.369048,5.14144981 306.568892,6.31959108 308.05397,6.32165799 L388.043561,6.32165799 C426.160565,6.32165799 442.530528,14.577948 448.850119,27.546803 C449.744059,29.3832565 451.633219,30.5531301 453.710468,30.5531301 L478.687063,30.5531301 C482.818825,30.5541636 486.930952,31.3065204 490.717539,32.9197472 C500.031056,36.8871896 507.453346,44.1203569 511.15829,53.6643346 C511.665717,54.971658 512.0729,56.0877918 512.325063,56.892855 C517.461346,73.3186245 517.069665,84.4551599 516.407219,89.5470037 C516.15919,91.4444312 514.818796,93.0225204 512.960639,93.5971227 L512.041896,93.8813234 C510.617792,94.7204907 509.384877,92.6174052 508.473368,91.2573755 C502.392506,82.1784535 502.182714,57.6255762 501.284639,55.4367138 C500.179874,52.7414572 496.45426,50.3055985 493.847881,47.8904089 C492.774119,46.8951896 491.413056,46.2472119 489.930045,46.039487 L489.846335,46.028119 C486.184796,45.5144907 482.492253,45.2602602 478.792476,45.2674944 L459.28597,45.3005651 C458.737204,45.3015985 458.39513,45.8720669 458.658662,46.3433234 C476.644952,78.4848773 482.57803,153.609985 482.57803,153.609985 C482.722714,155.654164 483.35829,157.634268 484.432052,159.391145 L486.750097,163.180833 C487.862097,165.000751 488.315784,180.517078 488.61342,182.61913 C488.61342,182.61913 496.225866,214.497152 484.465123,239.534721 C482.934572,242.791145 480.166974,245.332416 476.724528,246.539494 C472.750885,247.930528 468.564349,248.643613 464.341643,248.643613 L336.541219,248.643613 C335.29487,248.643613 334.24281,247.733138 334.086758,246.517792 L331.315026,224.894766 C329.705933,208.431792 319.309353,191.049041 305.434156,187.589026 L303.736186,187.164275 C291.504186,185.334022 277.535978,185.276149 266.738416,187.228349 C244.868394,192.979539 240.214736,214.75345 238.150922,231.857167 L235.550743,248.614677 C235.458766,249.235784 234.918268,249.695673 234.276491,249.696706 L231.068639,249.696706 L231.068639,249.696706 Z M448.344758,87.9730483 L405.760119,87.9730483 C404.277108,87.9751152 403.07623,89.1532565 403.07623,90.6073309 L403.07623,144.721219 C403.07623,146.719926 404.580944,148.055152 406.196238,149.272565 C421.328119,160.670565 452.679078,167.822089 452.679078,167.822089 C455.643033,169.004364 458.830216,166.687353 458.539814,163.560112 L451.802706,91.0703197 C451.63942,89.3165428 450.141941,87.9751152 448.344758,87.9730483 Z M387.149621,22.095316 L255.085152,22.095316 C254.000022,22.0963494 253.116416,22.9644535 253.116416,24.0268476 L253.116416,94.6460818 C253.116416,95.7074424 255.085152,96.5776134 255.085152,96.5776134 C255.085152,96.5776134 302.273844,96.4246617 323.884468,99.9508178 C352.398587,104.605509 376.543249,112.248959 388.133472,114.312773 C389.198967,114.501896 390.101175,113.442602 390.101175,112.381242 L389.118357,24.0268476 C389.118357,22.9644535 388.232684,22.0963494 387.149621,22.095316 Z M227.168372,17.5594721 L113.355792,17.5594721 C111.877948,17.5605056 110.671903,18.745881 110.671903,20.1927212 L110.671903,94.2947063 C110.671903,95.7436134 111.878981,96.9289888 113.355792,96.9289888 L227.168372,96.9289888 C228.644149,96.9289888 229.85226,95.7436134 229.85226,94.2947063 L229.85226,20.1927212 C229.85226,18.745881 228.646216,17.5605056 227.168372,17.5594721 Z M402.002468,69.886513 C402.002468,70.8527955 402.807532,71.6423569 403.791383,71.6423569 L451.194,71.6423569 C451.398625,71.6423569 451.541242,71.4770037 451.509204,71.2785799 C449.853606,60.68771 446.975428,52.2950037 443.331457,45.6550409 L435.644602,45.6550409 C434.267004,45.6550409 433.139502,44.5482082 433.139502,43.1964461 L433.139502,32.7140892 C422.644743,23.4915167 410.02623,21.636461 400.548394,22.1821264 C400.172216,22.2027955 399.854944,22.4332565 399.854944,22.8022007 L402.002468,69.886513 Z" id="Shape"></path>
                <polygon id="Path" fill-opacity="0.5" points="390.622705 10.8513011 52.328878 12.973574 30.1693227 116.878236 390.622705 121.947955"></polygon>
            </g>
        </g>
    </g>
</svg>