<?xml version="1.0" encoding="UTF-8"?>
<svg width="800px" height="400px" viewBox="0 0 800 400" version="1.1" xmlns="http://www.w3.org/2000/svg" xmlns:xlink="http://www.w3.org/1999/xlink">
    <!-- Generator: Sketch 57.1 (83088) - https://sketch.com -->
    <title>saloon-dark copy 2</title>
    <desc>Created with Sketch.</desc>
    <g id="saloon-dark-copy-2" stroke="none" stroke-width="1" fill="none" fill-rule="evenodd">
        <g id="icon-vehicle-2-light" transform="translate(69.680000, 101.000000)" fill="#FFFFFF">
            <polygon id="Path" fill-opacity="0.5" points="299.96 6.6 194.36 13.2 99.30284 66 299.96 66"></polygon>
            <path d="M138.90284,112.2 C162.56384,112.2 181.80284,131.46276 181.80284,155.15544 C181.80284,178.8468 162.56384,198 138.90284,198 C115.24052,198 96.00284,178.8468 96.00284,155.15544 C96.00284,131.46276 115.24052,112.2 138.90284,112.2 Z M544.2128,112.2 C567.87116,112.2 587.11148,131.46276 587.11148,155.15544 C587.11148,178.8468 567.87116,198 544.2128,198 C520.55048,198 501.31148,178.8468 501.31148,155.15544 C501.31148,131.46276 520.55048,112.2 544.2128,112.2 Z M138.90284,181.2822 C141.00296,181.2822 142.88396,181.05912 144.761,180.50736 C143.98616,178.07196 142.99352,175.96788 142.21868,174.64128 C141.77648,173.86512 141.44384,173.53248 140.67032,173.31336 C139.89548,173.09028 137.90492,173.09028 137.13404,173.31336 C136.36052,173.53248 136.13744,173.86512 135.58568,174.64128 C134.81084,175.96788 133.81424,178.07196 133.04336,180.50736 C135.02996,181.05912 136.91096,181.2822 138.90284,181.2822 Z M544.2128,181.2822 C546.31292,181.2822 548.19128,181.05912 550.07228,180.50736 C549.29744,178.07196 548.30348,175.96788 547.52996,174.64128 C547.0838,173.86512 546.75512,173.53248 545.98028,173.31336 C545.20676,173.09028 543.2162,173.09028 542.44136,173.31336 C541.66652,173.53248 541.4474,173.86512 540.893,174.64128 C540.11816,175.96788 539.1242,178.07196 538.35068,180.50736 C540.34124,181.05912 542.22224,181.2822 544.2128,181.2822 L544.2128,181.2822 Z M487.2548,171.6 L196.43108,172.92 C194.65568,172.92 192.5384,170.412 192.67172,166.43088 C193.63664,137.4846 174.70124,104.3856 139.28696,104.3856 C101.78312,104.3856 85.76624,135.3528 86.63876,159.76752 C86.75624,163.05696 85.4864,163.64436 82.03856,163.43316 C56.9678,161.54952 31.9604,158.72208 9.395,153.4896 C0.62096,151.39476 0.74768,142.84776 0.72524,139.66788 C0.68696,134.2968 -0.31756,128.6736 0.62096,121.02948 C1.14632,116.3184 0.86384,115.12644 5.6,113.52 C8.92772,112.3914 8.88416,99.2772 13.86056,85.70628 C16.73024,77.88264 20.88032,70.44048 22.76,64.68 C23.387,62.48088 17.61464,58.39152 20.12,58.08 C22.73096,57.76848 66.93512,53.15244 84.8,51.48 C113.3186,36.50856 152.00252,18.37968 177.2,10.56 C198.6566,3.90192 223.45016,0 291.35228,0 C338.88416,0 365.69204,6.1776 383.8724,13.82172 C414.79208,27.53388 442.8302,44.48796 471.56,60.72 C533.61056,64.38168 611.77436,74.448 633.92,80.52 C647.40776,84.18036 655.8056,113.78532 656.02604,114.23676 C656.96852,116.22996 660.4256,120.66516 660.322368,122.76 C660.2144,124.85352 659.72468,137.39748 659.5148,138.7584 C659.09768,141.16476 657.10712,153.77076 658.15388,153.77076 C660.34904,153.77076 660.322368,155.82468 660.322368,157.08 C660.322368,159.80184 654.2678,163.8516 648.209,164.89968 C632.2238,167.62152 622.01624,169.61076 601.43612,170.55456 C598.92944,170.66016 597.88268,168.66696 597.88268,166.99452 C597.88268,134.43408 583.08812,105.29244 544.54148,105.29244 C505.88924,105.29244 490.91252,136.00224 490.91252,166.05072 C490.91252,169.61076 489.02888,171.6 487.2548,171.6 L487.2548,171.6 Z M116.348,168.21816 C117.34064,169.98828 118.44812,171.42972 119.88296,172.8672 C121.6544,170.98752 122.981,169.10388 123.64496,167.77596 C124.08716,166.89156 124.19672,166.55892 124.08716,165.78276 C123.86408,164.89836 122.87144,163.2378 122.31572,162.68472 C121.76396,162.129 121.32176,162.01944 120.43868,162.01944 C118.77944,162.01944 116.5658,162.24252 114.0248,162.7956 C114.57524,164.67528 115.24052,166.44804 116.348,168.21816 Z M154.1594,167.77596 C154.93424,169.10388 156.25952,170.98752 158.03096,172.8672 C159.35624,171.42972 160.46372,169.98828 161.56724,168.21816 C162.56384,166.44804 163.22516,164.67528 163.77956,162.7956 C161.2346,162.24252 159.02492,162.01944 157.47524,162.01944 C156.59216,162.01944 156.14996,162.129 155.48468,162.68472 C154.93424,163.2378 153.94028,164.89836 153.82676,165.78276 C153.60764,166.55892 153.7172,166.89156 154.1594,167.77596 L154.1594,167.77596 Z M521.65268,168.21816 C522.6506,169.98828 523.75676,171.42972 525.19292,172.8672 C526.9604,170.98752 528.29096,169.10388 528.95096,167.77596 C529.39316,166.89156 529.50668,166.55892 529.39316,165.78276 C529.17404,164.89836 528.17744,163.2378 527.62568,162.68472 C527.07392,162.129 526.63172,162.01944 525.74468,162.01944 C524.08544,162.01944 521.87576,162.24252 519.33344,162.7956 C519.8852,164.67528 520.55048,166.44804 521.65268,168.21816 L521.65268,168.21816 Z M559.47068,167.77596 C560.24552,169.10388 561.5708,170.98752 563.33828,172.8672 C564.66488,171.42972 565.77104,169.98828 566.87852,168.21816 C567.87116,166.44804 568.53644,164.67528 569.0882,162.7956 C566.54588,162.24252 564.3362,162.01944 562.78652,162.01944 C561.90344,162.01944 561.46124,162.129 560.79596,162.68472 C560.24552,163.2378 559.2476,164.89836 559.13804,165.78276 C558.91496,166.55892 559.02848,166.89156 559.47068,167.77596 L559.47068,167.77596 Z M120.43868,148.18056 C121.32176,148.18056 121.76396,148.071 122.31572,147.51528 C122.87144,146.9622 123.86408,145.30164 124.08716,144.5268 C124.19672,143.75196 124.08716,143.30844 123.64496,142.5336 C122.87144,141.09612 121.6544,139.21248 119.88296,137.3328 C118.44812,138.77028 117.34064,140.21172 116.348,142.0914 C115.24052,143.86548 114.57524,145.63428 114.0248,147.4044 C116.5658,148.071 118.889,148.29012 120.43868,148.18056 Z M153.82676,144.5268 C153.94028,145.30164 154.93424,146.9622 155.48468,147.51528 C156.14996,148.071 156.59216,148.18056 157.47524,148.18056 C159.02492,148.29012 161.2346,148.071 163.77956,147.4044 C163.22516,145.63428 162.56384,143.86548 161.56724,142.0914 C160.46372,140.21172 159.35624,138.77028 158.03096,137.3328 C156.14996,139.32204 154.93424,141.20568 154.1594,142.5336 C153.7172,143.30844 153.60764,143.75196 153.82676,144.5268 Z M525.74468,148.18056 C526.63172,148.18056 527.07392,148.071 527.62568,147.51528 C528.17744,146.9622 529.17404,145.30164 529.39316,144.5268 C529.50668,143.75196 529.39316,143.30844 528.95096,142.5336 C528.17744,141.09612 526.9604,139.21248 525.19292,137.3328 C523.75676,138.77028 522.6506,140.21172 521.65268,142.0914 C520.55048,143.86548 519.8852,145.63428 519.33344,147.4044 C521.87576,148.071 524.19896,148.29012 525.74468,148.18056 L525.74468,148.18056 Z M559.13804,144.5268 C559.2476,145.30164 560.24552,146.9622 560.79596,147.51528 C561.46124,148.071 561.90344,148.18056 562.78652,148.18056 C564.3362,148.29012 566.54588,148.071 569.0882,147.4044 C568.53644,145.63428 567.87116,143.86548 566.87852,142.0914 C565.77104,140.21172 564.66488,138.77028 563.33828,137.3328 C561.46124,139.32204 560.24552,141.20568 559.47068,142.5336 C559.02848,143.30844 558.91496,143.75196 559.13804,144.5268 L559.13804,144.5268 Z M135.58568,135.55872 C136.13744,136.33488 136.36052,136.66752 137.13404,136.8906 C137.90492,137.10972 139.89548,137.10972 140.67032,136.8906 C141.44384,136.66752 141.77648,136.33488 142.21868,135.55872 C142.99352,134.23212 143.98616,132.2376 144.761,129.69264 C142.88396,129.25044 141.00296,128.9178 138.90284,128.9178 C136.8014,128.9178 135.02996,129.25044 133.04336,129.69264 C133.81424,132.2376 134.81084,134.23212 135.58568,135.55872 L135.58568,135.55872 Z M540.893,135.55872 C541.4474,136.33488 541.66652,136.66752 542.44136,136.8906 C543.2162,137.10972 545.20676,137.10972 545.98028,136.8906 C546.75512,136.66752 547.0838,136.33488 547.52996,135.55872 C548.30348,134.23212 549.29744,132.2376 550.07228,129.69264 C548.19128,129.25044 546.31292,128.9178 544.2128,128.9178 C542.10872,128.9178 540.34124,129.25044 538.35068,129.69264 C539.1242,132.2376 540.11816,134.23212 540.893,135.55872 L540.893,135.55872 Z M406.52492,66.26532 C402.70352,64.449 400.28,61.7496 400.28,58.74 C400.28,53.37948 407.96636,49.00764 417.54428,48.84528 L417.44,47.52 C405.63788,39.56436 390.81692,31.44636 383.32196,28.16484 C355.202,15.85716 341.02784,13.1934 305.71916,12.98352 C308.62712,31.75656 311.07836,45.10176 313.85168,61.974 L406.52492,66.26532 L406.52492,66.26532 Z M293.6966,61.04076 C293.15936,42.65184 290.15636,27.90348 288.94856,12.98352 C240.51512,13.08648 211.66256,18.5724 202.28,22.44 L205.57604,56.96196 L293.6966,61.04076 L293.6966,61.04076 Z M193.73564,56.41284 L191.72,26.4 C175.18172,33.6798 156.23708,47.1438 149.00348,54.34176 L193.73564,56.41284 L193.73564,56.41284 Z" id="Shape"></path>
        </g>
    </g>
</svg>