<?xml version="1.0" encoding="UTF-8"?>
<svg width="800px" height="400px" viewBox="0 0 800 400" version="1.1" xmlns="http://www.w3.org/2000/svg" xmlns:xlink="http://www.w3.org/1999/xlink">
    <!-- Generator: Sketch 57.1 (83088) - https://sketch.com -->
    <title>saloon-dark copy 3</title>
    <desc>Created with Sketch.</desc>
    <g id="saloon-dark-copy-3" stroke="none" stroke-width="1" fill="none" fill-rule="evenodd">
        <g id="icon-vehicle-1-light" transform="translate(69.500000, 101.000000)" fill="#FFFFFF">
            <path d="M527.0528,112.2 C550.71116,112.2 569.95148,131.46276 569.95148,155.15544 C569.95148,178.8468 550.71116,198 527.0528,198 C503.39048,198 484.15148,178.8468 484.15148,155.15544 C484.15148,131.46276 503.39048,112.2 527.0528,112.2 Z M154.74284,112.2 C178.40384,112.2 197.64284,131.46276 197.64284,155.15544 C197.64284,178.8468 178.40384,198 154.74284,198 C131.08052,198 111.84284,178.8468 111.84284,155.15544 C111.84284,131.46276 131.08052,112.2 154.74284,112.2 Z M154.74284,181.2822 C156.84296,181.2822 158.72396,181.05912 160.601,180.50736 C159.82616,178.07196 158.83352,175.96788 158.05868,174.64128 C157.61648,173.86512 157.28384,173.53248 156.51032,173.31336 C155.73548,173.09028 153.74492,173.09028 152.97404,173.31336 C152.20052,173.53248 151.97744,173.86512 151.42568,174.64128 C150.65084,175.96788 149.65424,178.07196 148.88336,180.50736 C150.86996,181.05912 152.75096,181.2822 154.74284,181.2822 Z M527.0528,181.2822 C529.15292,181.2822 531.03128,181.05912 532.91228,180.50736 C532.13744,178.07196 531.14348,175.96788 530.36996,174.64128 C529.9238,173.86512 529.59512,173.53248 528.82028,173.31336 C528.04676,173.09028 526.0562,173.09028 525.28136,173.31336 C524.50652,173.53248 524.2874,173.86512 523.733,174.64128 C522.95816,175.96788 521.9642,178.07196 521.19068,180.50736 C523.18124,181.05912 525.06224,181.2822 527.0528,181.2822 L527.0528,181.2822 Z M504.49268,168.21816 C505.4906,169.98828 506.59676,171.42972 508.03292,172.8672 C509.8004,170.98752 511.13096,169.10388 511.79096,167.77596 C512.23316,166.89156 512.34668,166.55892 512.23316,165.78276 C512.01404,164.89836 511.01744,163.2378 510.46568,162.68472 C509.91392,162.129 509.47172,162.01944 508.58468,162.01944 C506.92544,162.01944 504.71576,162.24252 502.17344,162.7956 C502.7252,164.67528 503.39048,166.44804 504.49268,168.21816 L504.49268,168.21816 Z M542.31068,167.77596 C543.08552,169.10388 544.4108,170.98752 546.17828,172.8672 C547.50488,171.42972 548.61104,169.98828 549.71852,168.21816 C550.71116,166.44804 551.37644,164.67528 551.9282,162.7956 C549.38588,162.24252 547.1762,162.01944 545.62652,162.01944 C544.74344,162.01944 544.30124,162.129 543.63596,162.68472 C543.08552,163.2378 542.0876,164.89836 541.97804,165.78276 C541.75496,166.55892 541.86848,166.89156 542.31068,167.77596 L542.31068,167.77596 Z M132.188,168.21816 C133.18064,169.98828 134.28812,171.42972 135.72296,172.8672 C137.4944,170.98752 138.821,169.10388 139.48496,167.77596 C139.92716,166.89156 140.03672,166.55892 139.92716,165.78276 C139.70408,164.89836 138.71144,163.2378 138.15572,162.68472 C137.60396,162.129 137.16176,162.01944 136.27868,162.01944 C134.61944,162.01944 132.4058,162.24252 129.8648,162.7956 C130.41524,164.67528 131.08052,166.44804 132.188,168.21816 Z M169.9994,167.77596 C170.77424,169.10388 172.09952,170.98752 173.87096,172.8672 C175.19624,171.42972 176.30372,169.98828 177.40724,168.21816 C178.40384,166.44804 179.06516,164.67528 179.61956,162.7956 C177.0746,162.24252 174.86492,162.01944 173.31524,162.01944 C172.43216,162.01944 171.98996,162.129 171.32468,162.68472 C170.77424,163.2378 169.78028,164.89836 169.66676,165.78276 C169.44764,166.55892 169.5572,166.89156 169.9994,167.77596 L169.9994,167.77596 Z M470.0948,171.6 L212.27108,171.6 C210.49568,171.6 208.3784,169.092 208.51172,165.11088 C209.47664,136.1646 190.54124,104.3856 155.12696,104.3856 C117.62312,104.3856 101.60624,135.3528 102.47876,159.76752 C102.59624,163.05696 101.3264,163.64436 97.87856,163.43316 C72.8078,161.54952 31.9604,158.72208 9.395,153.4896 C0.62096,151.39476 0.39656,141.77988 0.32,138.6 C0.19328,133.2738 0.30548,130.71168 0.32,122.76 C0.32924,118.01988 1.97792,114.75156 6.88964,113.80776 C11.80004,112.86396 13.57412,111.0846 15.038,107.31336 C15.24788,102.81348 15.45776,98.51952 15.66368,94.54236 C15.87488,90.981 16.18904,87.52524 16.50056,84.38628 C17.33744,76.21944 18.69572,71.74332 20.5754,65.98284 C21.20108,63.7824 22.03796,63.57252 24.54464,63.25968 C27.1556,62.94816 95.02868,56.32704 112.89356,54.65328 C141.41216,39.68184 156.48524,21.77736 181.2458,12.66672 C201.82196,5.1282 223.45016,0 291.35228,0 C338.88416,0 364.37204,6.1776 382.5524,13.82172 C413.47208,27.53388 449.06852,48.82944 477.797,65.06016 C539.84756,68.72184 598.53608,72.81648 620.68172,78.88848 C634.57736,82.65972 636.10988,97.3698 643.63256,112.75836 C644.57372,114.75156 652.90952,115.27428 654.7892,115.79568 C658.34264,117.05232 660.4256,120.66516 660.323832,122.76 C660.2144,124.85352 658.23704,139.87776 658.02716,141.23868 C657.61004,143.64504 657.40016,143.64504 655.73168,143.64504 C654.16352,143.64504 653.95232,157.57236 654.99908,157.57236 C657.19424,157.57236 657.40016,157.67796 657.40016,158.93328 C657.40016,161.65512 654.2678,163.8516 648.209,164.89968 C632.2238,167.62152 604.85624,169.61076 584.27612,170.55456 C581.76944,170.66016 580.72268,168.66696 580.72268,166.99452 C580.72268,134.43408 565.92812,105.29244 527.38148,105.29244 C488.72924,105.29244 473.75252,136.00224 473.75252,166.05072 C473.75252,169.61076 471.86888,171.6 470.0948,171.6 Z M508.58468,148.18056 C509.47172,148.18056 509.91392,148.071 510.46568,147.51528 C511.01744,146.9622 512.01404,145.30164 512.23316,144.5268 C512.34668,143.75196 512.23316,143.30844 511.79096,142.5336 C511.01744,141.09612 509.8004,139.21248 508.03292,137.3328 C506.59676,138.77028 505.4906,140.21172 504.49268,142.0914 C503.39048,143.86548 502.7252,145.63428 502.17344,147.4044 C504.71576,148.071 507.03896,148.29012 508.58468,148.18056 L508.58468,148.18056 Z M541.97804,144.5268 C542.0876,145.30164 543.08552,146.9622 543.63596,147.51528 C544.30124,148.071 544.74344,148.18056 545.62652,148.18056 C547.1762,148.29012 549.38588,148.071 551.9282,147.4044 C551.37644,145.63428 550.71116,143.86548 549.71852,142.0914 C548.61104,140.21172 547.50488,138.77028 546.17828,137.3328 C544.30124,139.32204 543.08552,141.20568 542.31068,142.5336 C541.86848,143.30844 541.75496,143.75196 541.97804,144.5268 L541.97804,144.5268 Z M136.27868,148.18056 C137.16176,148.18056 137.60396,148.071 138.15572,147.51528 C138.71144,146.9622 139.70408,145.30164 139.92716,144.5268 C140.03672,143.75196 139.92716,143.30844 139.48496,142.5336 C138.71144,141.09612 137.4944,139.21248 135.72296,137.3328 C134.28812,138.77028 133.18064,140.21172 132.188,142.0914 C131.08052,143.86548 130.41524,145.63428 129.8648,147.4044 C132.4058,148.071 134.729,148.29012 136.27868,148.18056 Z M169.66676,144.5268 C169.78028,145.30164 170.77424,146.9622 171.32468,147.51528 C171.98996,148.071 172.43216,148.18056 173.31524,148.18056 C174.86492,148.29012 177.0746,148.071 179.61956,147.4044 C179.06516,145.63428 178.40384,143.86548 177.40724,142.0914 C176.30372,140.21172 175.19624,138.77028 173.87096,137.3328 C171.98996,139.32204 170.77424,141.20568 169.9994,142.5336 C169.5572,143.30844 169.44764,143.75196 169.66676,144.5268 L169.66676,144.5268 Z M523.733,135.55872 C524.2874,136.33488 524.50652,136.66752 525.28136,136.8906 C526.0562,137.10972 528.04676,137.10972 528.82028,136.8906 C529.59512,136.66752 529.9238,136.33488 530.36996,135.55872 C531.14348,134.23212 532.13744,132.2376 532.91228,129.69264 C531.03128,129.25044 529.15292,128.9178 527.0528,128.9178 C524.94872,128.9178 523.18124,129.25044 521.19068,129.69264 C521.9642,132.2376 522.95816,134.23212 523.733,135.55872 L523.733,135.55872 Z M151.42568,135.55872 C151.97744,136.33488 152.20052,136.66752 152.97404,136.8906 C153.74492,137.10972 155.73548,137.10972 156.51032,136.8906 C157.28384,136.66752 157.61648,136.33488 158.05868,135.55872 C158.83352,134.23212 159.82616,132.2376 160.601,129.69264 C158.72396,129.25044 156.84296,128.9178 154.74284,128.9178 C152.6414,128.9178 150.86996,129.25044 148.88336,129.69264 C149.65424,132.2376 150.65084,134.23212 151.42568,135.55872 L151.42568,135.55872 Z M416.06192,52.8 L414.83036,46.69368 C403.02824,38.73804 391.84916,32.03772 384.64196,28.16484 C359.987,14.86716 341.02784,13.1934 305.71916,12.98352 C309.30956,30.80484 310.67708,47.95296 313.919,65.01528 L402.9794,67.05864 C402.9398,66.71016 402.92,66.35772 402.92,66 L402.92,62.04 C402.92,56.94084 407.06084,52.8 412.16,52.8 L416.06192,52.8 L416.06192,52.8 Z M205.8638,62.61816 L296.36432,64.70376 C294.59024,48.47568 293.42468,30.92892 291.58856,12.98352 C242.177,13.0878 228.25628,15.38856 216.3446,22.72116 C212.94164,24.78432 208.00352,28.54104 202.58096,33.06732 L205.8638,62.61816 L205.8638,62.61816 Z M192.94628,41.4018 C185.36024,48.28824 177.9458,55.78452 173.40896,61.87632 L195.28136,62.41488 L192.94628,41.4018 L192.94628,41.4018 Z" id="Shape"></path>
        </g>
    </g>
</svg>