<?xml version="1.0" encoding="UTF-8"?>
<svg width="800px" height="400px" viewBox="0 0 800 400" version="1.1" xmlns="http://www.w3.org/2000/svg" xmlns:xlink="http://www.w3.org/1999/xlink">
    <!-- Generator: Sketch 57.1 (83088) - https://sketch.com -->
    <title>Artboard Copy</title>
    <desc>Created with Sketch.</desc>
    <g id="Artboard-Copy" stroke="none" stroke-width="1" fill="none" fill-rule="evenodd">
        <g id="icon-vehicle-5-light" transform="translate(72.470588, 84.000000)" fill="#000000">
            <polygon id="Path" fill-opacity="0.5" points="197.882353 6.82352941 88.7058824 13.6470588 54.5882353 38.0793882 34.1176471 75.0588235 327.529412 85.9764706 320.705882 6.82352941"></polygon>
            <path d="M536.224329,143.294118 C560.683953,143.294118 580.575906,163.210635 580.575906,187.705741 C580.575906,212.196753 560.683953,232 536.224329,232 C511.760612,232 491.870024,212.196753 491.870024,187.705741 C491.870024,163.210635 511.760612,143.294118 536.224329,143.294118 Z M137.892612,143.294118 C162.357694,143.294118 182.245553,163.210635 182.245553,187.705741 C182.245553,212.196753 162.357694,232 137.892612,232 C113.431624,232 93.5396706,212.196753 93.5396706,187.705741 C93.5396706,163.210635 113.431624,143.294118 137.892612,143.294118 Z M536.224329,214.714635 C538.395576,214.714635 540.336188,214.488094 542.280894,213.913553 C541.479812,211.395671 540.453553,209.221694 539.652471,207.8488 C539.196659,207.047718 538.852753,206.703812 538.051671,206.473176 C537.251953,206.246635 535.193976,206.246635 534.392894,206.473176 C533.593176,206.703812 533.366635,207.047718 532.792094,207.8488 C531.991012,209.221694 530.964753,211.395671 530.165035,213.913553 C532.221647,214.488094 534.166353,214.714635 536.224329,214.714635 Z M137.892612,214.714635 C140.063859,214.714635 142.008565,214.488094 143.953271,213.913553 C143.153553,211.395671 142.121835,209.221694 141.322118,207.8488 C140.864941,207.047718 140.521035,206.703812 139.724047,206.473176 C138.924329,206.246635 136.866353,206.246635 136.065271,206.473176 C135.265553,206.703812 135.034918,207.047718 134.464471,207.8488 C133.663388,209.221694 132.637129,211.395671 131.836047,213.913553 C133.894024,214.488094 135.834635,214.714635 137.892612,214.714635 Z M1.8792,169.691624 C1.04263529,163.297976 2.84217094e-14,155.977694 2.84217094e-14,150.617129 C2.84217094e-14,145.156941 4.59496471,143.401929 8.24691765,139.692659 C11.9043294,135.875576 9.70988235,129.791718 8.24691765,124.227812 C3.96856471,107.938682 9.39872941,86.0842824 16.0830588,72.7824941 C22.6609412,59.3797176 45.4310588,33.1937412 63.9187294,18.6596235 C63.4451765,18.5095059 78.1580706,6.47143529 92.7426824,5.15312941 C136.084376,1.34014118 193.215059,0 248.570259,0 C324.082165,0 377.7656,5.66762353 415.782212,18.5559059 C456.930824,31.4428235 506.960941,57.8362353 553.123482,82.7857882 C558.033694,83.404 558.853882,83.7110588 563.552565,84.0222118 L577.247388,91.2374118 C600.017506,104.432753 630.619671,126.596941 641.691529,140.310871 C653.284706,147.422353 655.058824,157.114494 655.058824,165.360047 C655.058824,165.360047 655.058824,168.969694 655.058824,170.413553 C655.058824,171.857412 653.806024,172.990118 651.401412,173.608329 C651.401412,173.608329 651.401412,180.719812 651.401412,182.163671 C651.401412,183.300471 654.012094,185.051388 654.012094,186.287812 C654.012094,188.969459 650.463859,193.919247 645.660094,195.981318 C643.570729,196.906588 641.481365,198.246729 640.539718,199.690588 C643.570729,202.578306 643.780894,205.466024 641.691529,206.495012 C639.602165,207.627718 636.261365,208.146306 629.888188,208.349647 C623.621459,208.453365 597.719341,208.6608 595.318824,208.6608 C593.019294,208.6608 591.871576,207.113224 591.871576,204.947435 C591.871576,202.785741 591.871576,199.690588 591.871576,199.690588 C593.019294,158.144847 574.531624,139.074447 536.515012,136.908659 C500.171529,134.950306 481.058824,162.476424 482.727859,196.188753 C483.043106,200.516235 481.685224,204.022165 479.385694,204.022165 C387.269412,198.557882 282.098353,199.690588 196.976188,204.022165 C193.425224,204.225506 192.903906,197.835953 192.903906,194.226306 C192.903906,172.782682 183.503812,136.493788 139.430635,136.493788 C95.4570824,136.493788 83.1324235,168.969694 85.4319529,194.330024 C61.8293647,190.205882 32.3762824,185.980753 11.0677647,182.989318 C8.45708235,182.578541 6.68296471,182.474824 5.43152941,181.342118 C4.17463529,180.309035 2.81675294,178.661835 1.77411765,176.392329 C0.727388235,174.0232 2.19035294,172.268188 1.8792,169.691624 Z M512.904235,201.210871 C513.931859,203.039576 515.075482,204.529835 516.560282,206.016 C518.391718,204.072659 519.761882,202.125224 520.449694,200.752329 C520.905506,199.837976 521.018776,199.494071 520.905506,198.692988 C520.674871,197.777271 519.648612,196.060471 519.074071,195.485929 C518.504988,194.915482 518.047812,194.802212 517.133459,194.802212 C515.419388,194.802212 513.132141,195.028753 510.503718,195.5992 C511.074165,197.546635 511.760612,199.376706 512.904235,201.210871 Z M551.996235,200.752329 C552.795953,202.125224 554.167482,204.072659 555.998918,206.016 C557.369082,204.529835 558.512706,203.039576 559.657694,201.210871 C560.683953,199.376706 561.371765,197.546635 561.942212,195.5992 C559.313788,195.028753 557.025176,194.802212 555.424376,194.802212 C554.511388,194.802212 554.054212,194.915482 553.370494,195.485929 C552.795953,196.060471 551.769694,197.777271 551.652329,198.692988 C551.425788,199.494071 551.539059,199.837976 551.996235,200.752329 L551.996235,200.752329 Z M114.572518,201.210871 C115.602871,203.039576 116.747859,204.529835 118.231294,206.016 C120.062729,204.072659 121.432894,202.125224 122.116612,200.752329 C122.573788,199.837976 122.691153,199.494071 122.573788,198.692988 C122.347247,197.777271 121.319624,196.060471 120.746447,195.485929 C120.176,194.915482 119.718824,194.802212 118.801741,194.802212 C117.087671,194.802212 114.803153,195.028753 112.174729,195.5992 C112.745176,197.546635 113.431624,199.376706 114.572518,201.210871 Z M153.668612,200.752329 C154.469694,202.125224 155.839859,204.072659 157.6672,206.016 C159.042824,204.529835 160.186447,203.039576 161.327341,201.210871 C162.357694,199.376706 163.041412,197.546635 163.614588,195.5992 C160.983435,195.028753 158.698918,194.802212 157.098118,194.802212 C156.183765,194.802212 155.726588,194.915482 155.040141,195.485929 C154.469694,196.060471 153.439341,197.777271 153.326071,198.692988 C153.099529,199.494071 153.212901,199.837976 153.668612,200.752329 L153.668612,200.752329 Z M517.133459,180.491906 C518.047812,180.491906 518.504988,180.378635 519.074071,179.808188 C519.648612,179.233647 520.674871,177.516847 520.905506,176.715765 C521.018776,175.913318 520.905506,175.456141 520.449694,174.655059 C519.648612,173.168894 518.391718,171.221459 516.560282,169.275388 C515.075482,170.764282 513.931859,172.254541 512.904235,174.197882 C511.760612,176.030682 511.074165,177.860753 510.503718,179.690824 C513.132141,180.378635 515.532659,180.609271 517.133459,180.491906 Z M551.652329,176.715765 C551.769694,177.516847 552.795953,179.233647 553.370494,179.808188 C554.054212,180.378635 554.511388,180.491906 555.424376,180.491906 C557.025176,180.609271 559.313788,180.378635 561.942212,179.690824 C561.371765,177.860753 560.683953,176.030682 559.657694,174.197882 C558.512706,172.254541 557.369082,170.764282 555.998918,169.275388 C554.054212,171.334729 552.795953,173.282165 551.996235,174.655059 C551.539059,175.456141 551.425788,175.913318 551.652329,176.715765 L551.652329,176.715765 Z M118.801741,180.491906 C119.718824,180.491906 120.176,180.378635 120.746447,179.808188 C121.319624,179.233647 122.347247,177.516847 122.573788,176.715765 C122.691153,175.913318 122.573788,175.456141 122.116612,174.655059 C121.319624,173.168894 120.062729,171.221459 118.231294,169.275388 C116.747859,170.764282 115.602871,172.254541 114.572518,174.197882 C113.431624,176.030682 112.745176,177.860753 112.174729,179.690824 C114.803153,180.378635 117.203671,180.609271 118.801741,180.491906 Z M153.326071,176.715765 C153.439341,177.516847 154.469694,179.233647 155.040141,179.808188 C155.726588,180.378635 156.183765,180.491906 157.098118,180.491906 C158.698918,180.609271 160.983435,180.378635 163.614588,179.690824 C163.041412,177.860753 162.357694,176.030682 161.327341,174.197882 C160.186447,172.254541 159.042824,170.764282 157.6672,169.275388 C155.726588,171.334729 154.469694,173.282165 153.668612,174.655059 C153.212901,175.456141 153.099529,175.913318 153.326071,176.715765 L153.326071,176.715765 Z M532.792094,167.445318 C533.366635,168.2464 533.593176,168.590306 534.392894,168.816847 C535.193976,169.047482 537.251953,169.047482 538.051671,168.816847 C538.852753,168.590306 539.196659,168.2464 539.652471,167.445318 C540.453553,166.072424 541.479812,164.011718 542.280894,161.380565 C540.336188,160.923388 538.395576,160.579482 536.224329,160.579482 C534.048988,160.579482 532.221647,160.923388 530.165035,161.380565 C530.964753,164.011718 531.991012,166.072424 532.792094,167.445318 Z M134.464471,167.445318 C135.034918,168.2464 135.265553,168.590306 136.065271,168.816847 C136.866353,169.047482 138.924329,169.047482 139.724047,168.816847 C140.521035,168.590306 140.864941,168.2464 141.322118,167.445318 C142.121835,166.072424 143.153553,164.011718 143.953271,161.380565 C142.008565,160.923388 140.063859,160.579482 137.892612,160.579482 C135.721365,160.579482 133.894024,160.923388 131.836047,161.380565 C132.637129,164.011718 133.663388,166.072424 134.464471,167.445318 Z M468.734165,59.6908706 C470.613365,65.8770824 472.911529,73.1973647 474.790729,79.4832 C476.253694,84.2255529 477.506494,84.9474824 483.774588,85.2586353 C493.694635,85.6694118 502.992376,86.1839059 511.554541,86.5987765 C517.507388,86.9058353 518.554118,84.7441412 513.017506,81.1344941 C499.545129,72.2666353 485.862588,64.1220706 472.597647,56.8031529 C468.629082,54.5377412 467.481365,55.4630118 468.734165,59.6908706 Z M451.308235,58.6919059 L448.158494,44.0199529 C433.748565,37.1145412 420.272094,31.5465412 408.472847,27.7335529 C386.222682,20.5142588 362.203859,15.8756235 331.603059,13.2976941 L342.149506,79.2798588 C376.703859,80.5817882 410.066824,81.8878118 440.295059,83.1938353 C435.6264,80.7005176 432.611765,76.7606118 432.611765,72.3294118 C432.611765,64.9736471 440.922824,58.9689412 451.308235,58.6919059 L451.308235,58.6919059 Z M194.783106,74.2263529 C235.202965,75.5664941 278.125694,76.9066353 320.009882,78.4542118 L316.352471,12.2687059 C297.658729,11.1319059 276.456659,10.6174118 251.912424,10.7211294 C235.514118,10.8248471 219.743576,11.0281882 204.497082,11.4430588 C200.318353,22.3688941 196.766024,32.3721882 193.740471,41.4420235 L194.783106,74.2263529 Z M59.3196706,68.4536471 C85.8481882,69.0718588 119.061035,70.0012235 156.350259,71.0302118 C165.643906,71.3386353 167.211953,69.5863529 169.297224,62.5785882 C172.537035,51.2351529 177.237082,37.3178824 182.147294,23.2982588 C184.336282,17.2157647 182.147294,14.3266824 175.563953,14.6378353 C146.946071,16.0830588 119.690165,18.2488471 93.1630118,21.2361882 C83.8639059,22.3688941 79.4804706,25.2566118 74.3600941,31.1357647 C66.7354824,39.8944471 59.1136,49.8950118 53.4732706,58.5581647 C48.9833882,65.3584941 50.0260235,68.3499294 59.3196706,68.4536471 L59.3196706,68.4536471 Z" id="Shape"></path>
        </g>
    </g>
</svg>