<?xml version="1.0" encoding="UTF-8"?>
<svg width="453px" height="160px" viewBox="0 0 453 160" version="1.1" xmlns="http://www.w3.org/2000/svg" xmlns:xlink="http://www.w3.org/1999/xlink">
    <!-- Generator: Sketch 57.1 (83088) - https://sketch.com -->
    <title>JET Copy 3</title>
    <desc>Created with Sketch.</desc>
    <g id="Page-1" stroke="none" stroke-width="1" fill="none" fill-rule="evenodd">
        <g id="Desktop-HD-Copy" transform="translate(-485.000000, -449.000000)" fill-rule="nonzero">
            <g id="JET-Copy-3" transform="translate(485.000000, 449.000000)">
                <path d="M65.7659473,159.910351 C54.0541447,159.910351 43.2434122,157.920876 33.3334254,153.941866 C23.4234385,149.962857 15.4280009,144.031969 9.34687265,136.149025 C3.26574438,128.26608 0.150151315,118.844227 -5.68434189e-14,107.883181 C-5.68434189e-14,106.531819 0.45044719,105.368164 1.35135508,104.39218 C2.25226297,103.416197 3.37838095,102.928212 4.72974279,102.928212 L36.9370389,102.928212 C39.0391573,102.928212 40.690797,103.416197 41.8920075,104.39218 C43.0932181,105.368164 44.069187,106.982266 44.8199436,109.234536 C47.2223646,120.495884 54.5796687,126.126474 66.8920766,126.126474 C74.0993397,126.126474 79.6173178,123.761627 83.4461763,119.03186 C87.2750349,114.302094 89.1894354,107.432774 89.1894354,98.4236951 L89.1894354,34.9100063 L16.8919385,34.9100063 C15.3904254,34.9100063 14.0766211,34.3469473 12.9504862,33.2208124 C11.8243513,32.0946776 11.2612924,30.7808733 11.2612924,29.2793601 L11.2612924,5.63064618 C11.2612924,3.97898171 11.8243513,2.62764014 12.9504862,1.57658093 C14.0766211,0.525521721 15.3904254,5.68434189e-14 16.8919385,5.68434189e-14 L127.027378,5.68434189e-14 C128.679042,5.68434189e-14 130.067921,0.563058987 131.194056,1.68919385 C132.320191,2.81532872 132.88325,4.20420755 132.88325,5.85587202 L132.88325,99.7750502 C132.88325,112.537912 130.067955,123.461256 124.43728,132.545411 C118.806606,141.629566 110.92378,148.461348 100.788567,153.040963 C90.6533527,157.620578 78.9792631,159.910351 65.7659473,159.910351 Z" id="J" fill="#FFFFFF"></path>
                <path d="M172.054548,157.658093 C170.553034,157.658093 169.23923,157.095034 168.113095,155.968899 C166.98696,154.842764 166.423901,153.52896 166.423901,152.027447 L166.423901,5.85587202 C166.423901,4.20420755 166.949423,2.81532872 168.000482,1.68919385 C169.051541,0.563058987 170.402883,-2.84217094e-14 172.054548,-2.84217094e-14 L278.361147,-2.84217094e-14 C280.012812,-2.84217094e-14 281.401691,0.563058987 282.527825,1.68919385 C283.65396,2.81532872 284.217019,4.20420755 284.217019,5.85587202 L284.217019,28.1532309 C284.217019,29.8048953 283.65396,31.1562369 282.527825,32.2072961 C281.401691,33.2583553 280.012812,33.7838771 278.361147,33.7838771 L207.18978,33.7838771 L207.18978,62.3875596 L273.406179,62.3875596 C275.057843,62.3875596 276.446722,62.9506186 277.572857,64.0767535 C278.698992,65.2028883 279.262051,66.5917672 279.262051,68.2434316 L279.262051,88.7389837 C279.262051,90.3906482 278.698992,91.779527 277.572857,92.9056619 C276.446722,94.0317968 275.057843,94.5948557 273.406179,94.5948557 L207.18978,94.5948557 L207.18978,123.874216 L280.162954,123.874216 C281.814619,123.874216 283.203497,124.437275 284.329632,125.56341 C285.455767,126.689545 286.018826,128.078423 286.018826,129.730088 L286.018826,152.027447 C286.018826,153.679111 285.455767,155.030453 284.329632,156.081512 C283.203497,157.132571 281.814619,157.658093 280.162954,157.658093 L172.054548,157.658093 Z" id="E" fill="#4844F2"></path>
                <path d="M369.820839,157.658093 C368.169175,157.658093 366.780296,157.132571 365.654161,156.081512 C364.528026,155.030453 363.964967,153.679111 363.964967,152.027447 L363.964967,33.7118131 L324.325218,33.7118131 C322.673554,33.7118131 321.284675,33.1862913 320.15854,32.1352321 C319.032405,31.0841729 318.469346,29.7328314 318.469346,28.0811669 L318.469346,5.85587202 C318.469346,4.20420755 319.032405,2.81532872 320.15854,1.68919385 C321.284675,0.563058987 322.673554,0 324.325218,0 L446.622853,0 C448.274517,0 449.663396,0.563058987 450.789531,1.68919385 C451.915666,2.81532872 452.478725,4.20420755 452.478725,5.85587202 L452.478725,28.0811669 C452.478725,29.7328314 451.915666,31.0841729 450.789531,32.1352321 C449.663396,33.1862913 448.274517,33.7118131 446.622853,33.7118131 L406.983104,33.7118131 L406.983104,152.027447 C406.983104,153.679111 406.420045,155.030453 405.29391,156.081512 C404.167775,157.132571 402.778896,157.658093 401.127232,157.658093 L369.820839,157.658093 Z" id="T" fill="#FFFFFF"></path>
            </g>
        </g>
    </g>
</svg>