<?xml version="1.0" encoding="UTF-8"?>
<svg width="453px" height="161px" viewBox="0 0 453 161" version="1.1" xmlns="http://www.w3.org/2000/svg" xmlns:xlink="http://www.w3.org/1999/xlink">
    <!-- Generator: Sketch 57.1 (83088) - https://sketch.com -->
    <title>JET Copy 2</title>
    <desc>Created with Sketch.</desc>
    <g id="Page-1" stroke="none" stroke-width="1" fill="none" fill-rule="evenodd">
        <g id="Desktop-HD-Copy" transform="translate(-498.000000, -433.000000)" fill-rule="nonzero">
            <g id="JET-Copy-2" transform="translate(498.000000, 433.500000)">
                <path d="M65.7659473,159.910351 C54.0541447,159.910351 43.2434122,157.920876 33.3334254,153.941866 C23.4234385,149.962857 15.4280009,144.031969 9.34687265,136.149025 C3.26574438,128.26608 0.150151315,118.844227 -5.68434189e-14,107.883181 C-5.68434189e-14,106.531819 0.45044719,105.368164 1.35135508,104.39218 C2.25226297,103.416197 3.37838095,102.928212 4.72974279,102.928212 L36.9370389,102.928212 C39.0391573,102.928212 40.690797,103.416197 41.8920075,104.39218 C43.0932181,105.368164 44.069187,106.982266 44.8199436,109.234536 C47.2223646,120.495884 54.5796687,126.126474 66.8920766,126.126474 C74.0993397,126.126474 79.6173178,123.761627 83.4461763,119.03186 C87.2750349,114.302094 89.1894354,107.432774 89.1894354,98.4236951 L89.1894354,34.9100063 L16.8919385,34.9100063 C15.3904254,34.9100063 14.0766211,34.3469473 12.9504862,33.2208124 C11.8243513,32.0946776 11.2612924,30.7808733 11.2612924,29.2793601 L11.2612924,5.63064618 C11.2612924,3.97898171 11.8243513,2.62764014 12.9504862,1.57658093 C14.0766211,0.525521721 15.3904254,5.68434189e-14 16.8919385,5.68434189e-14 L127.027378,5.68434189e-14 C128.679042,5.68434189e-14 130.067921,0.563058987 131.194056,1.68919385 C132.320191,2.81532872 132.88325,4.20420755 132.88325,5.85587202 L132.88325,99.7750502 C132.88325,112.537912 130.067955,123.461256 124.43728,132.545411 C118.806606,141.629566 110.92378,148.461348 100.788567,153.040963 C90.6533527,157.620578 78.9792631,159.910351 65.7659473,159.910351 Z" id="J" fill="#FFFFFF"></path>
                <path d="M179.054548,157.658093 C177.553034,157.658093 176.23923,157.095034 175.113095,155.968899 C173.98696,154.842764 173.423901,153.52896 173.423901,152.027447 L173.423901,5.85587202 C173.423901,4.20420755 173.949423,2.81532872 175.000482,1.68919385 C176.051541,0.563058987 177.402883,0 179.054548,0 L285.361147,0 C287.012812,0 288.401691,0.563058987 289.527825,1.68919385 C290.65396,2.81532872 291.217019,4.20420755 291.217019,5.85587202 L291.217019,28.1532309 C291.217019,29.8048953 290.65396,31.1562369 289.527825,32.2072961 C288.401691,33.2583553 287.012812,33.7838771 285.361147,33.7838771 L214.18978,33.7838771 L214.18978,62.3875596 L280.406179,62.3875596 C282.057843,62.3875596 283.446722,62.9506186 284.572857,64.0767535 C285.698992,65.2028883 286.262051,66.5917672 286.262051,68.2434316 L286.262051,88.7389837 C286.262051,90.3906482 285.698992,91.779527 284.572857,92.9056619 C283.446722,94.0317968 282.057843,94.5948557 280.406179,94.5948557 L214.18978,94.5948557 L214.18978,123.874216 L287.162954,123.874216 C288.814619,123.874216 290.203497,124.437275 291.329632,125.56341 C292.455767,126.689545 293.018826,128.078423 293.018826,129.730088 L293.018826,152.027447 C293.018826,153.679111 292.455767,155.030453 291.329632,156.081512 C290.203497,157.132571 288.814619,157.658093 287.162954,157.658093 L179.054548,157.658093 Z" id="E" fill="#4844F2"></path>
                <path d="M369.820839,157.658093 C368.169175,157.658093 366.780296,157.132571 365.654161,156.081512 C364.528026,155.030453 363.964967,153.679111 363.964967,152.027447 L363.964967,36.7118131 L324.325218,36.7118131 C322.673554,36.7118131 321.284675,36.1862913 320.15854,35.1352321 C319.032405,34.0841729 318.469346,32.7328314 318.469346,31.0811669 L318.469346,5.85587202 C318.469346,4.20420755 319.032405,2.81532872 320.15854,1.68919385 C321.284675,0.563058987 322.673554,0 324.325218,0 L446.622853,0 C448.274517,0 449.663396,0.563058987 450.789531,1.68919385 C451.915666,2.81532872 452.478725,4.20420755 452.478725,5.85587202 L452.478725,31.0811669 C452.478725,32.7328314 451.915666,34.0841729 450.789531,35.1352321 C449.663396,36.1862913 448.274517,36.7118131 446.622853,36.7118131 L406.983104,36.7118131 L406.983104,152.027447 C406.983104,153.679111 406.420045,155.030453 405.29391,156.081512 C404.167775,157.132571 402.778896,157.658093 401.127232,157.658093 L369.820839,157.658093 Z" id="T" fill="#FFFFFF"></path>
            </g>
        </g>
    </g>
</svg>