<svg xmlns="http://www.w3.org/2000/svg" viewBox="0 0 200 200"><defs><style>.a{fill:#fff;}</style></defs><title>spotify</title><path class="a" d="M100,25a75,75,0,1,0,75,75A75,75,0,0,0,100,25Zm32.64,108.85a5.12,5.12,0,0,1-7,1.84c-13.48-7.88-29-9.15-39.74-8.82a99,99,0,0,0-20.62,2.72,5.13,5.13,0,0,1-2.72-9.89,106.33,106.33,0,0,1,22.74-3.07,100,100,0,0,1,21.9,1.58,73.78,73.78,0,0,1,23.61,8.62A5.13,5.13,0,0,1,132.64,133.85ZM142.18,114a6.07,6.07,0,0,1-5.25,3,6,6,0,0,1-3.06-.83c-16-9.33-34.41-10.83-47.08-10.44A117,117,0,0,0,62.38,109a6.07,6.07,0,1,1-3.22-11.71,126,126,0,0,1,26.92-3.65,119.58,119.58,0,0,1,26,1.88,87.68,87.68,0,0,1,28,10.21A6.09,6.09,0,0,1,142.18,114ZM148,96a7.46,7.46,0,0,1-3.76-1C106.33,72.84,57.1,86,56.6,86.16a7.45,7.45,0,1,1-4-14.37,155.09,155.09,0,0,1,33-4.47,145.7,145.7,0,0,1,31.83,2.31,107.34,107.34,0,0,1,34.3,12.52A7.45,7.45,0,0,1,148,96Z"/></svg>