<?xml version="1.0" encoding="UTF-8"?>
<svg width="800px" height="400px" viewBox="0 0 800 400" version="1.1" xmlns="http://www.w3.org/2000/svg" xmlns:xlink="http://www.w3.org/1999/xlink">
    <!-- Generator: Sketch 57.1 (83088) - https://sketch.com -->
    <title>v-class-dark copy 2</title>
    <desc>Created with Sketch.</desc>
    <g id="v-class-dark-copy-2" stroke="none" stroke-width="1" fill="none" fill-rule="evenodd">
        <g id="Group" transform="translate(101.464250, 64.000000)" fill="#FFFFFF">
            <g id="icon-vehicle-7-light">
                <path d="M122.733034,185.756098 C146.515122,185.756098 165.853659,205.118517 165.853659,228.931122 C165.853659,252.747707 146.515122,272 122.733034,272 C98.9482927,272 79.6097561,252.747707 79.6097561,228.931122 C79.6097561,205.118517 98.9482927,185.756098 122.733034,185.756098 Z M488.937912,185.756098 C512.72,185.756098 532.058537,205.118517 532.058537,228.931122 C532.058537,252.747707 512.72,272 488.937912,272 C465.153171,272 445.814634,252.747707 445.814634,228.931122 C445.814634,205.118517 465.153171,185.756098 488.937912,185.756098 Z M122.733034,255.197034 C124.846673,255.197034 126.733424,254.975454 128.624156,254.415532 C127.84398,251.970185 126.844878,249.853893 126.067356,248.520429 C125.624195,247.738927 125.291161,247.405893 124.509659,247.182985 C123.732137,246.961405 121.731278,246.961405 120.953756,247.182985 C120.176234,247.405893 119.954654,247.738927 119.400039,248.520429 C118.622517,249.853893 117.619434,251.970185 116.843239,254.415532 C118.844098,254.975454 120.732176,255.197034 122.733034,255.197034 L122.733034,255.197034 Z M488.937912,255.197034 C491.051551,255.197034 492.938302,254.975454 494.829034,254.415532 C494.048859,251.970185 493.049756,249.853893 492.272234,248.520429 C491.829073,247.738927 491.496039,247.405893 490.714537,247.182985 C489.937015,246.961405 487.936156,246.961405 487.158634,247.182985 C486.381112,247.405893 486.159532,247.738927 485.604917,248.520429 C484.827395,249.853893 483.824312,251.970185 483.048117,254.415532 C485.048976,254.975454 486.937054,255.197034 488.937912,255.197034 Z M100.061502,242.066732 C101.060605,243.844683 102.175141,245.29358 103.617405,246.738498 C105.394029,244.849093 106.730146,242.955707 107.396215,241.618263 C107.839376,240.729288 107.950829,240.394927 107.839376,239.617405 C107.617795,238.724449 106.618693,237.056624 106.064078,236.500683 C105.508137,235.946068 105.060995,235.834615 104.17202,235.834615 C102.508176,235.834615 100.283083,236.056195 97.7262829,236.612137 C98.2822244,238.505522 98.9482927,240.2848 100.061502,242.066732 L100.061502,242.066732 Z M138.07118,241.618263 C138.848702,242.955707 140.180839,244.849093 141.960117,246.738498 C143.292254,245.29358 144.40281,243.844683 145.51602,242.066732 C146.515122,240.2848 147.18119,238.505522 147.737132,236.612137 C145.182985,236.056195 142.95922,235.834615 141.405502,235.834615 C140.513873,235.834615 140.069385,235.946068 139.403317,236.500683 C138.848702,237.056624 137.84562,238.724449 137.738146,239.617405 C137.512585,240.394927 137.624039,240.729288 138.07118,241.618263 L138.07118,241.618263 Z M466.26638,242.066732 C467.265483,243.844683 468.38002,245.29358 469.822283,246.738498 C471.598907,244.849093 472.935024,242.955707 473.601093,241.618263 C474.044254,240.729288 474.155707,240.394927 474.044254,239.617405 C473.822673,238.724449 472.823571,237.056624 472.268956,236.500683 C471.713015,235.946068 471.265873,235.834615 470.376898,235.834615 C468.713054,235.834615 466.487961,236.056195 463.931161,236.612137 C464.487102,238.505522 465.153171,240.2848 466.26638,242.066732 L466.26638,242.066732 Z M504.276059,241.618263 C505.05358,242.955707 506.385717,244.849093 508.164995,246.738498 C509.497132,245.29358 510.607688,243.844683 511.720898,242.066732 C512.72,240.2848 513.386068,238.505522 513.94201,236.612137 C511.387863,236.056195 509.164098,235.834615 507.61038,235.834615 C506.718751,235.834615 506.274263,235.946068 505.608195,236.500683 C505.05358,237.056624 504.050498,238.724449 503.943024,239.617405 C503.717463,240.394927 503.828917,240.729288 504.276059,241.618263 L504.276059,241.618263 Z M176.626185,2.92167805 L355.192195,2.92167805 C361.604761,2.92300488 367.95762,4.0163122 373.965502,6.15118049 L378.974283,7.93178537 L391.766244,13.5323317 C401.020878,17.579161 409.832351,22.5030244 418.074615,28.2282927 L429.062088,35.8615415 C434.305717,39.502361 439.33042,43.427122 444.114966,47.6132683 L521.274068,115.142244 C522.920663,116.58318 524.624312,117.963083 526.383688,119.275317 L590.607532,167.82798 C592.350985,169.144195 593.407141,171.127805 593.498693,173.26002 L593.624741,176.17639 L595.271337,192.846673 L596.229307,195.500332 C597.085112,197.876683 597.294751,200.424195 596.835668,202.901385 L594.407571,216.011785 C594.284176,216.441678 594.220488,216.883512 594.220488,217.328 L594.220488,222.57959 C594.220488,224.041756 593.283746,225.352663 591.865366,225.875434 L571.734712,233.279141 C570.094751,233.881522 568.359259,234.215883 566.599883,234.263649 L542.884137,234.99112 C542.127844,235.008 541.508215,234.417561 541.52679,233.690459 L541.693971,226.597229 C541.976585,209.98002 529.3664,192.346459 522.204176,187.543337 C516.93401,184.013971 504.420683,176.163122 486.183415,176.250693 C466.738732,176.347551 445.067629,191.440234 439.835941,207.355551 C437.293737,215.090966 434.207532,232.862517 434.207532,232.862517 C434.123941,233.551141 433.56402,234.095141 432.850185,234.185366 C432.850185,234.185366 428.94798,234.190673 428.2368,234.18802 L178.718595,231.625912 C176.610263,231.591415 174.955707,229.793561 175.056546,227.657366 C174.022946,216.856976 173.315746,209.165346 164.952741,197.2 C156.593717,185.238634 143.535063,176.579746 125.195629,175.946849 C113.995863,175.560741 102.262712,178.353717 93.6423024,184.283317 L87.0638829,189.050615 C86.4296585,189.509698 85.8153366,189.995317 85.236839,190.527376 C76.8300488,198.26279 73.1189073,207.417912 71.0039415,215.589854 L69.4263415,231.393717 C69.3905171,231.721444 69.2498732,232.009366 69.041561,232.228293 L60.6825366,232.167259 C58.3380293,231.835551 54.128,231.393717 50.9409561,230.861659 L33.2941268,230.016468 C29.0708293,230.016468 24.876722,229.32121 20.8988878,227.963863 L4.09061463,222.229307 C1.63863415,221.390751 -1.98951966e-13,219.160351 -1.98951966e-13,216.657951 L-1.98951966e-13,206.043317 C-1.98951966e-13,205.448898 0.501541463,204.969912 1.11851707,204.969912 C2.94556098,204.969912 4.46876098,203.625834 4.63196098,201.87442 C6.06228293,186.667629 4.77525854,169.770459 5.44530732,151.096663 C6.73763902,115.148878 10.7101659,72.624 22.1235512,22.9077073 C22.855961,19.708722 24.3459902,16.7658146 25.9753366,13.8826146 C29.3972293,7.82563902 35.2750829,5.88846829 35.2750829,5.88846829 C38.9304976,3.9260878 45.6402732,2.92167805 51.7105171,2.92167805 L110.215727,2.92167805 L111.082146,-4.21884749e-14 L171.634654,-4.21884749e-14 L176.626185,2.92167805 L176.626185,2.92167805 Z M137.738146,218.250146 C137.84562,219.027668 138.848702,220.699473 139.403317,221.254088 C140.069385,221.810029 140.513873,221.921483 141.405502,221.921483 C142.95922,222.032937 145.182985,221.810029 147.737132,221.143961 C147.18119,219.364683 146.515122,217.582751 145.51602,215.8048 C144.40281,213.911415 143.292254,212.462517 141.960117,211.0176 C140.069385,213.022439 138.848702,214.911844 138.07118,216.249288 C137.624039,217.02681 137.512585,217.471298 137.738146,218.250146 L137.738146,218.250146 Z M104.17202,221.921483 C105.060995,221.921483 105.508137,221.810029 106.064078,221.254088 C106.618693,220.699473 107.617795,219.027668 107.839376,218.250146 C107.950829,217.471298 107.839376,217.02681 107.396215,216.249288 C106.618693,214.80039 105.394029,212.910985 103.617405,211.0176 C102.175141,212.462517 101.060605,213.911415 100.061502,215.8048 C98.9482927,217.582751 98.2822244,219.364683 97.7262829,221.143961 C100.283083,221.810029 102.618302,222.032937 104.17202,221.921483 L104.17202,221.921483 Z M503.943024,218.250146 C504.050498,219.027668 505.05358,220.699473 505.608195,221.254088 C506.274263,221.810029 506.718751,221.921483 507.61038,221.921483 C509.164098,222.032937 511.387863,221.810029 513.94201,221.143961 C513.386068,219.364683 512.72,217.582751 511.720898,215.8048 C510.607688,213.911415 509.497132,212.462517 508.164995,211.0176 C506.274263,213.022439 505.05358,214.911844 504.276059,216.249288 C503.828917,217.02681 503.717463,217.471298 503.943024,218.250146 Z M470.376898,221.921483 C471.265873,221.921483 471.713015,221.810029 472.268956,221.254088 C472.823571,220.699473 473.822673,219.027668 474.044254,218.250146 C474.155707,217.471298 474.044254,217.02681 473.601093,216.249288 C472.823571,214.80039 471.598907,212.910985 469.822283,211.0176 C468.38002,212.462517 467.265483,213.911415 466.26638,215.8048 C465.153171,217.582751 464.487102,219.364683 463.931161,221.143961 C466.487961,221.810029 468.82318,222.032937 470.376898,221.921483 Z M119.400039,209.239649 C119.954654,210.017171 120.176234,210.350205 120.953756,210.573112 C121.731278,210.794693 123.732137,210.794693 124.509659,210.573112 C125.291161,210.350205 125.624195,210.017171 126.067356,209.239649 C126.844878,207.902205 127.84398,205.897366 128.624156,203.340566 C126.733424,202.892098 124.846673,202.559063 122.733034,202.559063 C120.620722,202.559063 118.844098,202.892098 116.843239,203.340566 C117.619434,205.897366 118.622517,207.902205 119.400039,209.239649 L119.400039,209.239649 Z M485.604917,209.239649 C486.159532,210.017171 486.381112,210.350205 487.158634,210.573112 C487.936156,210.794693 489.937015,210.794693 490.714537,210.573112 C491.496039,210.350205 491.829073,210.017171 492.272234,209.239649 C493.049756,207.902205 494.048859,205.897366 494.829034,203.340566 C492.938302,202.892098 491.051551,202.559063 488.937912,202.559063 C486.8256,202.559063 485.048976,202.892098 483.048117,203.340566 C483.824312,205.897366 484.827395,207.902205 485.604917,209.239649 Z M484.271454,105.839844 C484.286049,106.129093 484.292683,106.420995 484.292683,106.715551 C484.292683,112.610654 481.402849,117.6128 477.41042,119.339005 L495.568078,120.728195 C496.820605,120.821073 497.553015,119.402693 496.715785,118.500449 L484.271454,105.839844 L484.271454,105.839844 Z M466.852839,88.1611707 L425.553951,51.7702244 C423.419083,49.4721561 420.387278,48.1320585 417.184312,48.0683707 L369.101346,40.9260488 C365.801522,40.862361 363.173073,43.5624585 363.457015,46.7229659 L363.457015,101.692176 C364.01561,107.941541 369.195551,112.882654 375.697015,113.376234 L463.94841,118.335922 C461.887844,117.561054 460.409756,115.471298 460.409756,113.01799 C460.409756,111.238712 461.073171,95.2066341 461.073171,93.7789659 C461.073171,90.6662244 463.450849,88.1399415 466.380488,88.1399415 C466.539707,88.1399415 466.6976,88.1465756 466.852839,88.1611707 L466.852839,88.1611707 Z M343.282576,41.2259122 L198.110205,41.2259122 C194.556956,41.2298927 191.679063,44.110439 191.679063,47.6583805 L191.679063,106.253815 C191.679063,109.80441 194.560937,112.686283 198.110205,112.686283 L336.851434,112.686283 C343.951298,112.686283 349.713717,106.922537 349.713717,99.8226732 L349.713717,47.6583805 C349.713717,44.110439 346.837151,41.2298927 343.282576,41.2259122 Z M171.505951,41.2259122 L35.289678,41.2259122 C31.7364293,41.2312195 29.3574244,44.3850927 28.8585366,47.6583805 C24.5171512,68.723122 21.5981268,89.2889756 20.7303805,105.420566 L20.6136195,106.253815 C20.6136195,109.80441 23.4954927,112.686283 27.044761,112.686283 L171.505951,112.686283 C175.05522,112.686283 177.937093,109.80441 177.937093,106.253815 L177.937093,47.6583805 C177.937093,44.110439 175.0592,41.2298927 171.505951,41.2259122 Z" id="Shape"></path>
            </g>
            <polygon id="Path" fill-opacity="0.5" points="351.61838 31.1804878 25.2097561 32.904039 12.0891384 121.404878 351.61838 121.404878"></polygon>
        </g>
    </g>
</svg>